<svg viewBox="0 0 24 24" xmlns="http://www.w3.org/2000/svg">
  <path d="M12 2C6.477 2 2 6.477 2 12s4.477 10 10 10 10-4.477 10-10S17.523 2 12 2z" fill="#6b7380"/>
  <path d="M8.5 9.5a1 1 0 110 2 1 1 0 010-2zm7 0a1 1 0 110 2 1 1 0 010-2z" fill="#333"/>
  <path d="M8 14.5s1 2 4 2 4-2 4-2" stroke="#333" stroke-width="1.5" stroke-linecap="round" fill="none"/>
  <path d="M7 7.5c0-.5.5-1.5 1.5-1.5S10 7 10 7.5M14 7.5c0-.5.5-1.5 1.5-1.5S17 7 17 7.5" stroke="black" stroke-width="1.2" stroke-linecap="round" fill="none"/>
</svg>
