<svg viewBox="0 0 24 24" fill="#6b7380" xmlns="http://www.w3.org/2000/svg">
  <path d="M7.5 3.75a.75.75 0 000 1.5h2.25a.75.75 0 000-1.5H7.5z" fill="#6b7380"/>
  <path fill-rule="evenodd" clip-rule="evenodd" d="M3 7.5A4.5 4.5 0 017.5 3h9A4.5 4.5 0 0121 7.5v9a4.5 4.5 0 01-4.5 4.5h-9A4.5 4.5 0 013 16.5v-9zm5.25.75a2.25 2.25 0 100 4.5 2.25 2.25 0 000-4.5zm4.5 0a2.25 2.25 0 100 4.5 2.25 2.25 0 000-4.5zm4.5 0a2.25 2.25 0 100 4.5 2.25 2.25 0 000-4.5zM8.25 9a.75.75 0 110 1.5.75.75 0 010-1.5zm4.5 0a.75.75 0 110 1.5.75.75 0 010-1.5zm4.5 0a.75.75 0 110 1.5.75.75 0 010-1.5z" fill="#6b7380"/>
  <path d="M3 12h18M12 3v18" stroke="white" stroke-width="1.5" stroke-linecap="round" opacity="0.3"/>
  <circle cx="8.25" cy="9.75" r="1.5" fill="none" stroke="white" stroke-width="1.5"/>
  <circle cx="12.75" cy="9.75" r="1.5" fill="none" stroke="white" stroke-width="1.5"/>
  <circle cx="16" cy="14" r="2" fill="none" stroke="white" stroke-width="1.5"/>
  <circle cx="9.5" cy="14.5" r="2" fill="none" stroke="white" stroke-width="1.5"/>
  <line x1="10.5" y1="9.75" x2="11.25" y2="9.75" stroke="white" stroke-width="1.5"/>
</svg>
