<svg viewBox="0 0 33.3 34" fill="none" xmlns="http://www.w3.org/2000/svg">
  <g fill="#f45d67" data-sentry-element="g" data-sentry-source-file="DLAILogo.tsx">
    <path fill-rule="evenodd" clip-rule="evenodd"
      d="M16.643 33.145c-3.292 0-6.51-.972-9.246-2.793a16.588 16.588 0 01-6.13-7.438A16.507 16.507 0 01.32 13.34a16.55 16.55 0 014.555-8.485A16.665 16.665 0 0113.396.318a16.71 16.71 0 019.616.944 16.628 16.628 0 017.47 6.103 16.522 16.522 0 012.804 9.207c0 4.396-1.753 8.61-4.874 11.719a16.68 16.68 0 01-11.769 4.854zm.125-6.628c6.906 0 12.517-5.698 12.517-12.73 0-7.03-5.61-12.725-12.517-12.725-6.906 0-12.517 5.698-12.517 12.725 0 7.027 5.611 12.73 12.517 12.73zm-.125-2.918c-6.289 0-11.386-4.925-11.386-11.002C5.257 6.52 10.36 1.59 16.643 1.59c6.284 0 11.386 4.93 11.386 11.007s-5.097 11.002-11.386 11.002zm-.242-4.508c4.77 0 8.633-3.679 8.633-8.218 0-4.538-3.885-8.221-8.633-8.221-4.747 0-8.632 3.679-8.632 8.221 0 4.543 3.885 8.218 8.632 8.218zm.126-1.59c-3.734 0-6.76-3.207-6.76-7.16 0-3.954 3.018-7.16 6.75-7.16 3.734 0 6.76 3.206 6.76 7.16s-3.021 7.16-6.76 7.16h.01zm-.126-6.28c.729 0 1.44-.214 2.046-.617a3.67 3.67 0 001.356-1.646 3.652 3.652 0 00-.798-3.995 3.687 3.687 0 00-4.012-.794 3.679 3.679 0 00-1.653 1.35 3.655 3.655 0 00-.62 2.037c.002.971.39 1.902 1.08 2.59a3.698 3.698 0 002.601 1.076z"
      data-sentry-element="path" data-sentry-source-file="DLAILogo.tsx"></path>
    <path fill-rule="evenodd" clip-rule="evenodd"
      d="M16.643 33.145c-3.292 0-6.51-.972-9.246-2.793a16.588 16.588 0 01-6.13-7.438A16.507 16.507 0 01.32 13.34a16.55 16.55 0 014.555-8.485A16.665 16.665 0 0113.396.318a16.71 16.71 0 019.616.944 16.628 16.628 0 017.47 6.103 16.522 16.522 0 012.804 9.207c0 4.396-1.753 8.61-4.874 11.719a16.68 16.68 0 01-11.769 4.854zm.125-6.628c6.906 0 12.517-5.698 12.517-12.73 0-7.03-5.61-12.725-12.517-12.725-6.906 0-12.517 5.698-12.517 12.725 0 7.027 5.611 12.73 12.517 12.73zm-.125-2.918c-6.289 0-11.386-4.925-11.386-11.002C5.257 6.52 10.36 1.59 16.643 1.59c6.284 0 11.386 4.93 11.386 11.007s-5.097 11.002-11.386 11.002zm-.242-4.508c4.77 0 8.633-3.679 8.633-8.218 0-4.538-3.885-8.221-8.633-8.221-4.747 0-8.632 3.679-8.632 8.221 0 4.543 3.885 8.218 8.632 8.218z"
      data-sentry-element="path" data-sentry-source-file="DLAILogo.tsx"></path>
    <path fill-rule="evenodd" clip-rule="evenodd"
      d="M16.643 33.145c-3.292 0-6.51-.972-9.246-2.793a16.588 16.588 0 01-6.13-7.438A16.507 16.507 0 01.32 13.34a16.55 16.55 0 014.555-8.485A16.665 16.665 0 0113.396.318a16.71 16.71 0 019.616.944 16.628 16.628 0 017.47 6.103 16.522 16.522 0 012.804 9.207c0 4.396-1.753 8.61-4.874 11.719a16.68 16.68 0 01-11.769 4.854zm.125-6.628c6.906 0 12.517-5.698 12.517-12.73 0-7.03-5.61-12.725-12.517-12.725-6.906 0-12.517 5.698-12.517 12.725 0 7.027 5.611 12.73 12.517 12.73z"
      data-sentry-element="path" data-sentry-source-file="DLAILogo.tsx"></path>
  </g>
</svg>